<?xml version="1.0" encoding="utf-8"?>
<!-- Generator: Adobe Illustrator 21.0.0, SVG Export Plug-In . SVG Version: 6.00 Build 0)  -->
<svg version="1.1" id="形状_6_1_" xmlns="http://www.w3.org/2000/svg" xmlns:xlink="http://www.w3.org/1999/xlink" x="0px"
	 y="0px" viewBox="0 0 17 20" style="enable-background:new 0 0 17 20;" xml:space="preserve">
<style type="text/css">
	.st0{fill-rule:evenodd;clip-rule:evenodd;fill:#FFFFFF;}
</style>
<g id="形状_6">
	<g>
		<path class="st0" d="M8.5,20c1.6,0,3.5-1.5,3.5-3c0,0-5.7,0-7,0C5,18.5,6.9,20,8.5,20z M16.1,13.7c-0.9,0-0.9-2.5-0.9-2.5V8.7
			c0-3.1-2-5.7-4.7-6.6c0-0.1,0-0.2,0-0.3c0-1-0.8-1.8-1.9-1.8c-1,0-1.9,0.8-1.9,1.8c0,0.1,0,0.2,0,0.3C4,2.9,1.9,5.6,1.9,8.7v2.4
			c0,0,0,2.5-0.9,2.6c-1,0-1,0.8-1,1.3c0,0.5,0.4,1,1,1h15c0.5,0,1-0.5,1-1C17,14.5,17,13.7,16.1,13.7z"/>
	</g>
</g>
</svg>
