<?xml version="1.0" encoding="utf-8"?>
<!-- Generator: Adobe Illustrator 21.0.0, SVG Export Plug-In . SVG Version: 6.00 Build 0)  -->
<svg version="1.1" id="形状_19_1_" xmlns="http://www.w3.org/2000/svg" xmlns:xlink="http://www.w3.org/1999/xlink" x="0px"
	 y="0px" viewBox="0 0 14 14" style="enable-background:new 0 0 14 14;" xml:space="preserve">
<style type="text/css">
	.st0{fill-rule:evenodd;clip-rule:evenodd;fill:#777777;}
</style>
<g id="形状_19">
	<g>
		<path class="st0" d="M13.4,12l-2.1-2.1c0,0-0.1,0-0.1-0.1c1.7-2.3,1.5-5.6-0.6-7.7c-2.3-2.3-6.1-2.3-8.5,0c-2.3,2.3-2.3,6.1,0,8.5
			c2.1,2.1,5.4,2.3,7.7,0.6c0,0,0,0.1,0.1,0.1l2.1,2.1c0.4,0.4,1,0.4,1.4,0C13.8,13,13.8,12.3,13.4,12z M9.1,9.1
			c-1.6,1.6-4.1,1.6-5.6,0c-1.6-1.6-1.6-4.1,0-5.6c1.6-1.6,4.1-1.6,5.6,0C10.7,5.1,10.7,7.6,9.1,9.1z"/>
	</g>
</g>
</svg>
