<?xml version="1.0" standalone="no"?><!DOCTYPE svg PUBLIC "-//W3C//DTD SVG 1.1//EN" "http://www.w3.org/Graphics/SVG/1.1/DTD/svg11.dtd"><svg t="1560836618624" class="icon" style="" viewBox="0 0 1024 1024" version="1.1" xmlns="http://www.w3.org/2000/svg" p-id="7077" xmlns:xlink="http://www.w3.org/1999/xlink" width="200" height="200"><defs><style type="text/css"></style></defs><path d="M512 0C229.7 0 0 229.7 0 512s229.7 512 512 512 512-229.7 512-512S794.3 0 512 0z m-63.4 655.2c0 21.8-17.7 39.5-39.5 39.5s-39.5-17.7-39.5-39.5V368.8c0-21.8 17.7-39.5 39.5-39.5s39.5 17.7 39.5 39.5v286.4z m205.8 0c0 21.8-17.7 39.5-39.5 39.5s-39.5-17.7-39.5-39.5V368.8c0-21.8 17.7-39.5 39.5-39.5s39.5 17.7 39.5 39.5v286.4z m0 0" p-id="7078"></path></svg>