<?xml version="1.0" encoding="utf-8"?>
<!-- Generator: Adobe Illustrator 21.0.0, SVG Export Plug-In . SVG Version: 6.00 Build 0)  -->
<svg version="1.1" id="形状_5_1_" xmlns="http://www.w3.org/2000/svg" xmlns:xlink="http://www.w3.org/1999/xlink" x="0px"
	 y="0px" viewBox="0 0 20 20" style="enable-background:new 0 0 20 20;" xml:space="preserve">
<style type="text/css">
	.st0{fill-rule:evenodd;clip-rule:evenodd;fill:#FFFFFF;}
</style>
<g id="形状_5">
	<g>
		<path class="st0" d="M10,0C4.5,0,0,4.5,0,10s4.5,10,10,10c2.7,0,5.2-1.1,7.1-2.9c1.9-1.9,2.9-4.4,2.9-7.1C20,4.5,15.5,0,10,0z
			 M10.9,16.5h-2v-2h2V16.5z M12.2,10.2c-1,0.6-1.5,1.4-1.4,2.2V13H9.1v-0.7c0-1.2,0.5-2.1,1.6-2.9c1.2-0.8,1.7-1.6,1.7-2.4
			c-0.1-1.2-0.8-1.8-2-1.9C8.9,5.1,8,5.9,7.6,7.6L5.8,7.2C6.4,4.7,8,3.5,10.7,3.5l0,0c2.3,0.1,3.5,1.2,3.7,3.3
			C14.5,8.1,13.7,9.2,12.2,10.2z"/>
	</g>
</g>
</svg>
