<svg t="1560318623867" class="icon" style="" viewBox="0 0 1280 1024" version="1.1" xmlns="http://www.w3.org/2000/svg" p-id="2487" xmlns:xlink="http://www.w3.org/1999/xlink"><path d="M588.8 249.6c-121.6 0-217.6 96-217.6 217.6s96 217.6 217.6 217.6 217.6-96 217.6-217.6-96-217.6-217.6-217.6zM1088 0H192C83.2 0 0 83.2 0 192v640c0 108.8 83.2 192 192 192h896c108.8 0 192-83.2 192-192V192c0-108.8-83.2-192-192-192z m-89.6 876.8c-6.4 12.8-25.6 19.2-38.4 19.2-12.8 0-32-6.4-44.8-19.2l-134.4-134.4c-57.6 38.4-121.6 57.6-192 57.6-89.6 0-172.8-32-236.8-96S256 556.8 256 467.2c0-89.6 32-172.8 96-236.8s147.2-96 236.8-96c89.6 0 172.8 32 236.8 96s96 147.2 96 236.8c0 70.4-19.2 134.4-57.6 192l134.4 134.4c25.6 25.6 25.6 64 0 83.2z" fill="#4285f4" p-id="2488"></path></svg>