<?xml version="1.0" encoding="utf-8"?>
<!-- Generator: Adobe Illustrator 21.0.0, SVG Export Plug-In . SVG Version: 6.00 Build 0)  -->
<svg version="1.1" id="矩形_12_1_" xmlns="http://www.w3.org/2000/svg" xmlns:xlink="http://www.w3.org/1999/xlink" x="0px"
	 y="0px" viewBox="0 0 20 16" style="enable-background:new 0 0 20 16;" xml:space="preserve">
<style type="text/css">
	.st0{fill-rule:evenodd;clip-rule:evenodd;fill:#E6E6E6;}
</style>
<g id="矩形_12">
	<g>
		<path class="st0" d="M12.4,4.5c-1.6,0-2.8,1.3-2.8,2.9c0,1.6,1.3,2.9,2.8,2.9c1.6,0,2.8-1.3,2.8-2.9S13.9,4.5,12.4,4.5z M17,0H3
			C1.3,0,0,1.3,0,3v10c0,1.7,1.3,3,3,3h14c1.7,0,3-1.3,3-3V3C20,1.3,18.7,0,17,0z M6,13H3V3h3V13z M17.7,12.8
			c-0.1,0.2-0.3,0.2-0.5,0.2c-0.2,0-0.4-0.1-0.5-0.2L14.9,11c-0.7,0.5-1.6,0.8-2.5,0.8c-1.2,0-2.3-0.5-3.1-1.3C8.5,9.7,8,8.6,8,7.4
			c0-1.2,0.5-2.3,1.3-3.1C10.1,3.5,11.2,3,12.4,3c1.2,0,2.3,0.5,3.1,1.3c0.8,0.8,1.3,1.9,1.3,3.1c0,0.9-0.3,1.8-0.8,2.5l1.8,1.8h0
			C18,12,18,12.5,17.7,12.8z"/>
	</g>
</g>
</svg>
